<svg xmlns="http://www.w3.org/2000/svg" viewBox="0 0 32 32">
  <circle cx="16" cy="16" r="15" fill="#8A2BE2"/>
  <path fill="#FFFFFF" d="M16 6c-1.1 0-2 0.9-2 2s0.9 2 2 2 2-0.9 2-2-0.9-2-2-2zm-6 10c0 3.3 2.7 6 6 6s6-2.7 6-6c0-1.8-0.8-3.4-2-4.5v-1.5c0-0.3-0.2-0.5-0.5-0.5h-7c-0.3 0-0.5 0.2-0.5 0.5v1.5c-1.2 1.1-2 2.7-2 4.5zm10.5-3h-9c-0.3 0-0.5 0.2-0.5 0.5s0.2 0.5 0.5 0.5h9c0.3 0 0.5-0.2 0.5-0.5s-0.2-0.5-0.5-0.5zm-4.5 7c-2.2 0-4-1.8-4-4s1.8-4 4-4 4 1.8 4 4-1.8 4-4 4zm0-6c-1.1 0-2 0.9-2 2s0.9 2 2 2 2-0.9 2-2-0.9-2-2-2zm0 12c3.9 0 7-3.1 7-7 0-0.3-0.2-0.5-0.5-0.5s-0.5 0.2-0.5 0.5c0 3.3-2.7 6-6 6s-6-2.7-6-6c0-0.3-0.2-0.5-0.5-0.5s-0.5 0.2-0.5 0.5c0 3.9 3.1 7 7 7z"/>
</svg> 