<svg xmlns="http://www.w3.org/2000/svg" viewBox="0 0 32 32">
  <circle cx="16" cy="16" r="15" fill="#F7931A"/>
  <path fill="#FFFFFF" d="M22.25 14.434c.331-2.211-1.352-3.399-3.654-4.193l.747-2.996-1.822-.454-.727 2.916c-.479-.119-.971-.231-1.46-.342l.732-2.935-1.822-.454-.747 2.996c-.396-.09-.785-.18-1.162-.273l.002-.01-2.513-.627-.484 1.945s1.352.31 1.323.329c.738.184.872.673.85 1.06l-.851 3.415c.05.013.117.032.19.061l-.194-.048-1.194 4.785c-.09.224-.32.56-.837.432.018.026-1.324-.33-1.324-.33l-.906 2.088 2.371.591c.441.11.874.226 1.3.335l-.755 3.035 1.82.454.747-2.998c.497.135.98.26 1.454.377l-.744 2.981 1.822.454.755-3.029c3.108.588 5.446.35 6.428-2.458.791-2.264-.039-3.569-1.67-4.42 1.19-.275 2.084-1.057 2.324-2.674zm-4.159 5.839c-.562 2.264-4.36 1.04-5.59.733l.997-4c1.229.307 5.172.916 4.593 3.267zm.561-5.875c-.511 2.055-3.669.994-4.693.743l.905-3.629c1.024.255 4.315.731 3.788 2.886z"/>
</svg> 